<svg xmlns="http://www.w3.org/2000/svg" height="352" preserveAspectRatio="none" style="width:407px;height:352px" width="407"><defs><filter height="300%" id="a" width="300%" x="-1" y="-1"><feGaussianBlur result="blurOut" stdDeviation="2"/><feColorMatrix in="blurOut" result="blurOut2" values="0 0 0 0 0 0 0 0 0 0 0 0 0 0 0 0 0 0 .4 0"/><feOffset dx="4" dy="4" in="blurOut2" result="blurOut3"/><feBlend in="SourceGraphic" in2="blurOut3"/></filter></defs><path fill="#FFF" filter="url(#a)" stroke="#fff" d="M128 69.43h10v22h-10z"/><path stroke="#a80036" d="M128 69.43v22M138 69.43v22M128 69.43h10"/><path fill="#FFF" filter="url(#a)" stroke="#fff" d="M128 132.234h10v35.133h-10z"/><path stroke="#a80036" d="M128 132.234v35.133M138 132.234v35.133M128 167.367h10"/><path fill="#FFF" filter="url(#a)" stroke="#fff" d="M218 196.5h10v22h-10z"/><path stroke="#a80036" d="M218 196.5v22M228 196.5v22M218 196.5h10"/><path fill="#FFF" filter="url(#a)" stroke="#fff" d="M218 259.305h10v35.133h-10z"/><path stroke="#a80036" d="M218 259.305v35.133M228 259.305v35.133M218 294.438h10"/><path fill="#FFF" filter="url(#a)" stroke="#fff" d="M376.5 83.43h10v8h-10z"/><path stroke="#a80036" d="M376.5 83.43v8M386.5 83.43v8M376.5 83.43h10"/><path fill="#FFF" filter="url(#a)" stroke="#fff" d="M376.5 132.234h10v6h-10z"/><path stroke="#a80036" d="M376.5 132.234v6M386.5 132.234v6M376.5 138.234h10"/><path fill="#FFF" filter="url(#a)" stroke="#fff" d="M376.5 210.5h10v8h-10z"/><path stroke="#a80036" d="M376.5 210.5v8M386.5 210.5v8M376.5 210.5h10"/><path fill="#FFF" filter="url(#a)" stroke="#fff" d="M376.5 259.305h10v6h-10z"/><path stroke="#a80036" d="M376.5 259.305v6M386.5 259.305v6M376.5 265.305h10M33 38.297V91.43"/><path stroke="#a80036" stroke-dasharray="1,4" d="M33 91.43v40.804"/><path stroke="#a80036" d="M33 132.234V218.5"/><path stroke="#a80036" stroke-dasharray="1,4" d="M33 218.5v40.805"/><path stroke="#a80036" d="M33 259.305v53.133M133 38.297V91.43"/><path stroke="#a80036" stroke-dasharray="1,4" d="M133 91.43v40.804"/><path stroke="#a80036" d="M133 132.234V218.5"/><path stroke="#a80036" stroke-dasharray="1,4" d="M133 218.5v40.805"/><path stroke="#a80036" d="M133 259.305v53.133M223 38.297V91.43"/><path stroke="#a80036" stroke-dasharray="1,4" d="M223 91.43v40.804"/><path stroke="#a80036" d="M223 132.234V218.5"/><path stroke="#a80036" stroke-dasharray="1,4" d="M223 218.5v40.805"/><path stroke="#a80036" d="M223 259.305v53.133M313 38.297V91.43"/><path stroke="#a80036" stroke-dasharray="1,4" d="M313 91.43v40.804"/><path stroke="#a80036" d="M313 132.234V218.5"/><path stroke="#a80036" stroke-dasharray="1,4" d="M313 218.5v40.805"/><path stroke="#a80036" d="M313 259.305v53.133M381 38.297V91.43"/><path stroke="#a80036" stroke-dasharray="1,4" d="M381 91.43v40.804"/><path stroke="#a80036" d="M381 132.234V218.5"/><path stroke="#a80036" stroke-dasharray="1,4" d="M381 218.5v40.805"/><path stroke="#a80036" d="M381 259.305v53.133"/><path fill="#FEFECE" filter="url(#a)" stroke="#a80036" stroke-width="1.5" d="M8 3h46v30.297H8z"/><text font-family="sans-serif" font-size="14" lengthAdjust="spacingAndGlyphs" textLength="32" x="15" y="22.995">User</text><path fill="#FEFECE" filter="url(#a)" stroke="#a80036" stroke-width="1.5" d="M8 311.438h46v30.297H8z"/><text font-family="sans-serif" font-size="14" lengthAdjust="spacingAndGlyphs" textLength="32" x="15" y="331.433">User</text><path fill="#FEFECE" filter="url(#a)" stroke="#a80036" stroke-width="1.5" d="M93 3h76v30.297H93z"/><text font-family="sans-serif" font-size="14" lengthAdjust="spacingAndGlyphs" textLength="62" x="100" y="22.995">Thread 1</text><path fill="#FEFECE" filter="url(#a)" stroke="#a80036" stroke-width="1.5" d="M93 311.438h76v30.297H93z"/><text font-family="sans-serif" font-size="14" lengthAdjust="spacingAndGlyphs" textLength="62" x="100" y="331.433">Thread 1</text><path fill="#FEFECE" filter="url(#a)" stroke="#a80036" stroke-width="1.5" d="M183 3h76v30.297h-76z"/><text font-family="sans-serif" font-size="14" lengthAdjust="spacingAndGlyphs" textLength="62" x="190" y="22.995">Thread 2</text><path fill="#FEFECE" filter="url(#a)" stroke="#a80036" stroke-width="1.5" d="M183 311.438h76v30.297h-76z"/><text font-family="sans-serif" font-size="14" lengthAdjust="spacingAndGlyphs" textLength="62" x="190" y="331.433">Thread 2</text><path fill="#FEFECE" filter="url(#a)" stroke="#a80036" stroke-width="1.5" d="M273 3h76v30.297h-76z"/><text font-family="sans-serif" font-size="14" lengthAdjust="spacingAndGlyphs" textLength="62" x="280" y="22.995">Thread 3</text><path fill="#FEFECE" filter="url(#a)" stroke="#a80036" stroke-width="1.5" d="M273 311.438h76v30.297h-76z"/><text font-family="sans-serif" font-size="14" lengthAdjust="spacingAndGlyphs" textLength="62" x="280" y="331.433">Thread 3</text><path fill="#FEFECE" filter="url(#a)" stroke="#a80036" stroke-width="1.5" d="M363 3h33v30.297h-33z"/><text font-family="sans-serif" font-size="14" lengthAdjust="spacingAndGlyphs" textLength="19" x="370" y="22.995">I/O</text><path fill="#FEFECE" filter="url(#a)" stroke="#a80036" stroke-width="1.5" d="M363 311.438h33v30.297h-33z"/><text font-family="sans-serif" font-size="14" lengthAdjust="spacingAndGlyphs" textLength="19" x="370" y="331.433">I/O</text><path fill="#FFF" filter="url(#a)" stroke="#fff" d="M128 69.43h10v22h-10z"/><path stroke="#a80036" d="M128 69.43v22M138 69.43v22M128 69.43h10"/><path fill="#FFF" filter="url(#a)" stroke="#fff" d="M128 132.234h10v35.133h-10z"/><path stroke="#a80036" d="M128 132.234v35.133M138 132.234v35.133M128 167.367h10"/><path fill="#FFF" filter="url(#a)" stroke="#fff" d="M218 196.5h10v22h-10z"/><path stroke="#a80036" d="M218 196.5v22M228 196.5v22M218 196.5h10"/><path fill="#FFF" filter="url(#a)" stroke="#fff" d="M218 259.305h10v35.133h-10z"/><path stroke="#a80036" d="M218 259.305v35.133M228 259.305v35.133M218 294.438h10"/><path fill="#FFF" filter="url(#a)" stroke="#fff" d="M376.5 83.43h10v8h-10z"/><path stroke="#a80036" d="M376.5 83.43v8M386.5 83.43v8M376.5 83.43h10"/><path fill="#FFF" filter="url(#a)" stroke="#fff" d="M376.5 132.234h10v6h-10z"/><path stroke="#a80036" d="M376.5 132.234v6M386.5 132.234v6M376.5 138.234h10"/><path fill="#FFF" filter="url(#a)" stroke="#fff" d="M376.5 210.5h10v8h-10z"/><path stroke="#a80036" d="M376.5 210.5v8M386.5 210.5v8M376.5 210.5h10"/><path fill="#FFF" filter="url(#a)" stroke="#fff" d="M376.5 259.305h10v6h-10z"/><path stroke="#a80036" d="M376.5 259.305v6M386.5 259.305v6M376.5 265.305h10"/><path fill="#A80036" stroke="#a80036" d="M116 65.43l10 4-10 4 4-4z"/><path stroke="#a80036" d="M33 69.43h89"/><text font-family="sans-serif" font-size="13" lengthAdjust="spacingAndGlyphs" textLength="61" x="40" y="64.364">request 1</text><path fill="#A80036" stroke="#a80036" d="M364.5 79.43l10 4-10 4 4-4z"/><path stroke="#a80036" d="M138 83.43h232.5"/><text font-family="sans-serif" font-size="11" lengthAdjust="spacingAndGlyphs" textLength="138" x="138.25" y="115.64">blocking operation delay</text><path fill="#A80036" stroke="#a80036" d="M149 134.234l-10 4 10 4-4-4z"/><path stroke="#a80036" d="M143 138.234h237.5"/><path fill="#A80036" stroke="#a80036" d="M44 163.367l-10 4 10 4-4-4z"/><path stroke="#a80036" d="M38 167.367h94"/><text font-family="sans-serif" font-size="13" lengthAdjust="spacingAndGlyphs" textLength="71" x="50" y="162.301">response 1</text><path fill="#A80036" stroke="#a80036" d="M206 192.5l10 4-10 4 4-4z"/><path stroke="#a80036" d="M33 196.5h179"/><text font-family="sans-serif" font-size="13" lengthAdjust="spacingAndGlyphs" textLength="61" x="40" y="191.434">request 2</text><path fill="#A80036" stroke="#a80036" d="M364.5 206.5l10 4-10 4 4-4z"/><path stroke="#a80036" d="M228 210.5h142.5"/><text font-family="sans-serif" font-size="11" lengthAdjust="spacingAndGlyphs" textLength="138" x="138.25" y="242.71">blocking operation delay</text><path fill="#A80036" stroke="#a80036" d="M239 261.305l-10 4 10 4-4-4z"/><path stroke="#a80036" d="M233 265.305h147.5"/><path fill="#A80036" stroke="#a80036" d="M44 290.438l-10 4 10 4-4-4z"/><path stroke="#a80036" d="M38 294.438h184"/><text font-family="sans-serif" font-size="13" lengthAdjust="spacingAndGlyphs" textLength="71" x="50" y="289.372">response 2</text></svg>