<svg xmlns="http://www.w3.org/2000/svg" height="311" preserveAspectRatio="none" style="width:392px;height:311px" width="392"><defs><filter height="300%" id="a" width="300%" x="-1" y="-1"><feGaussianBlur result="blurOut" stdDeviation="2"/><feColorMatrix in="blurOut" result="blurOut2" values="0 0 0 0 0 0 0 0 0 0 0 0 0 0 0 0 0 0 .4 0"/><feOffset dx="4" dy="4" in="blurOut2" result="blurOut3"/><feBlend in="SourceGraphic" in2="blurOut3"/></filter></defs><path fill="#FFF" filter="url(#a)" stroke="#a80036" d="M113 69.43h10v14h-10zM203 112.563h10v14h-10zM203 224.5h10v29.133h-10zM293 181.367h10V210.5h-10z"/><path fill="#FFF" filter="url(#a)" stroke="#fff" d="M361.5 83.43h10v51.133h-10z"/><path stroke="#a80036" d="M361.5 83.43v51.133M371.5 83.43v51.133M361.5 83.43h10"/><path fill="#FFF" filter="url(#a)" stroke="#fff" d="M361.5 175.367h10V224.5h-10z"/><path stroke="#a80036" d="M361.5 175.367V224.5M371.5 175.367V224.5M361.5 224.5h10"/><path fill="#FFF" filter="url(#a)" stroke="#fff" d="M366.5 126.563h10v8h-10z"/><path stroke="#a80036" d="M366.5 126.563v8M376.5 126.563v8M366.5 126.563h10"/><path fill="#FFF" filter="url(#a)" stroke="#fff" d="M366.5 175.367h10v6h-10z"/><path stroke="#a80036" d="M366.5 175.367v6M376.5 175.367v6M366.5 181.367h10M33 38.297v96.266"/><path stroke="#a80036" stroke-dasharray="1,4" d="M33 134.563v40.804"/><path stroke="#a80036" d="M33 175.367v96.266M118 38.297v96.266"/><path stroke="#a80036" stroke-dasharray="1,4" d="M118 134.563v40.804"/><path stroke="#a80036" d="M118 175.367v96.266M208 38.297v96.266"/><path stroke="#a80036" stroke-dasharray="1,4" d="M208 134.563v40.804"/><path stroke="#a80036" d="M208 175.367v96.266M298 38.297v96.266"/><path stroke="#a80036" stroke-dasharray="1,4" d="M298 134.563v40.804"/><path stroke="#a80036" d="M298 175.367v96.266M366 38.297v96.266"/><path stroke="#a80036" stroke-dasharray="1,4" d="M366 134.563v40.804"/><path stroke="#a80036" d="M366 175.367v96.266"/><path fill="#FEFECE" filter="url(#a)" stroke="#a80036" stroke-width="1.5" d="M8 3h46v30.297H8z"/><text font-family="sans-serif" font-size="14" lengthAdjust="spacingAndGlyphs" textLength="32" x="15" y="22.995">User</text><path fill="#FEFECE" filter="url(#a)" stroke="#a80036" stroke-width="1.5" d="M8 270.633h46v30.297H8z"/><text font-family="sans-serif" font-size="14" lengthAdjust="spacingAndGlyphs" textLength="32" x="15" y="290.628">User</text><path fill="#FEFECE" filter="url(#a)" stroke="#a80036" stroke-width="1.5" d="M78 3h76v30.297H78z"/><text font-family="sans-serif" font-size="14" lengthAdjust="spacingAndGlyphs" textLength="62" x="85" y="22.995">Thread 1</text><path fill="#FEFECE" filter="url(#a)" stroke="#a80036" stroke-width="1.5" d="M78 270.633h76v30.297H78z"/><text font-family="sans-serif" font-size="14" lengthAdjust="spacingAndGlyphs" textLength="62" x="85" y="290.628">Thread 1</text><path fill="#FEFECE" filter="url(#a)" stroke="#a80036" stroke-width="1.5" d="M168 3h76v30.297h-76z"/><text font-family="sans-serif" font-size="14" lengthAdjust="spacingAndGlyphs" textLength="62" x="175" y="22.995">Thread 2</text><path fill="#FEFECE" filter="url(#a)" stroke="#a80036" stroke-width="1.5" d="M168 270.633h76v30.297h-76z"/><text font-family="sans-serif" font-size="14" lengthAdjust="spacingAndGlyphs" textLength="62" x="175" y="290.628">Thread 2</text><path fill="#FEFECE" filter="url(#a)" stroke="#a80036" stroke-width="1.5" d="M258 3h76v30.297h-76z"/><text font-family="sans-serif" font-size="14" lengthAdjust="spacingAndGlyphs" textLength="62" x="265" y="22.995">Thread 3</text><path fill="#FEFECE" filter="url(#a)" stroke="#a80036" stroke-width="1.5" d="M258 270.633h76v30.297h-76z"/><text font-family="sans-serif" font-size="14" lengthAdjust="spacingAndGlyphs" textLength="62" x="265" y="290.628">Thread 3</text><path fill="#FEFECE" filter="url(#a)" stroke="#a80036" stroke-width="1.5" d="M348 3h33v30.297h-33z"/><text font-family="sans-serif" font-size="14" lengthAdjust="spacingAndGlyphs" textLength="19" x="355" y="22.995">I/O</text><path fill="#FEFECE" filter="url(#a)" stroke="#a80036" stroke-width="1.5" d="M348 270.633h33v30.297h-33z"/><text font-family="sans-serif" font-size="14" lengthAdjust="spacingAndGlyphs" textLength="19" x="355" y="290.628">I/O</text><path fill="#FFF" filter="url(#a)" stroke="#a80036" d="M113 69.43h10v14h-10zM203 112.563h10v14h-10zM203 224.5h10v29.133h-10zM293 181.367h10V210.5h-10z"/><path fill="#FFF" filter="url(#a)" stroke="#fff" d="M361.5 83.43h10v51.133h-10z"/><path stroke="#a80036" d="M361.5 83.43v51.133M371.5 83.43v51.133M361.5 83.43h10"/><path fill="#FFF" filter="url(#a)" stroke="#fff" d="M361.5 175.367h10V224.5h-10z"/><path stroke="#a80036" d="M361.5 175.367V224.5M371.5 175.367V224.5M361.5 224.5h10"/><path fill="#FFF" filter="url(#a)" stroke="#fff" d="M366.5 126.563h10v8h-10z"/><path stroke="#a80036" d="M366.5 126.563v8M376.5 126.563v8M366.5 126.563h10"/><path fill="#FFF" filter="url(#a)" stroke="#fff" d="M366.5 175.367h10v6h-10z"/><path stroke="#a80036" d="M366.5 175.367v6M376.5 175.367v6M366.5 181.367h10"/><path fill="#A80036" stroke="#a80036" d="M101 65.43l10 4-10 4 4-4z"/><path stroke="#a80036" d="M33 69.43h74"/><text font-family="sans-serif" font-size="13" lengthAdjust="spacingAndGlyphs" textLength="61" x="40" y="64.364">request 1</text><path fill="#A80036" stroke="#a80036" d="M349.5 79.43l10 4-10 4 4-4z"/><path stroke="#a80036" d="M118 83.43h237.5"/><path fill="#A80036" stroke="#a80036" d="M191 108.563l10 4-10 4 4-4z"/><path stroke="#a80036" d="M33 112.563h164"/><text font-family="sans-serif" font-size="13" lengthAdjust="spacingAndGlyphs" textLength="61" x="40" y="107.497">request 2</text><path fill="#A80036" stroke="#a80036" d="M354.5 122.563l10 4-10 4 4-4z"/><path stroke="#a80036" d="M208 126.563h152.5"/><text font-family="sans-serif" font-size="11" lengthAdjust="spacingAndGlyphs" textLength="138" x="130.75" y="158.773">blocking operation delay</text><path fill="#A80036" stroke="#a80036" d="M314 177.367l-10 4 10 4-4-4z"/><path stroke="#a80036" d="M308 181.367h52.5"/><path fill="#A80036" stroke="#a80036" d="M44 206.5l-10 4 10 4-4-4z"/><path stroke="#a80036" d="M38 210.5h259"/><text font-family="sans-serif" font-size="13" lengthAdjust="spacingAndGlyphs" textLength="71" x="50" y="205.434">response 1</text><path fill="#A80036" stroke="#a80036" d="M224 220.5l-10 4 10 4-4-4z"/><path stroke="#a80036" d="M218 224.5h147.5"/><path fill="#A80036" stroke="#a80036" d="M44 249.633l-10 4 10 4-4-4z"/><path stroke="#a80036" d="M38 253.633h169"/><text font-family="sans-serif" font-size="13" lengthAdjust="spacingAndGlyphs" textLength="71" x="50" y="248.567">response 2</text></svg>