<?xml version="1.0" encoding="UTF-8" standalone="no"?><svg xmlns="http://www.w3.org/2000/svg" xmlns:xlink="http://www.w3.org/1999/xlink" contentScriptType="application/ecmascript" contentStyleType="text/css" height="352px" preserveAspectRatio="none" style="width:407px;height:352px;" version="1.1" viewBox="0 0 407 352" width="407px" zoomAndPan="magnify"><defs><filter height="300%" id="f1o1mcwb0nckgs" width="300%" x="-1" y="-1"><feGaussianBlur result="blurOut" stdDeviation="2.0"/><feColorMatrix in="blurOut" result="blurOut2" type="matrix" values="0 0 0 0 0 0 0 0 0 0 0 0 0 0 0 0 0 0 .4 0"/><feOffset dx="4.0" dy="4.0" in="blurOut2" result="blurOut3"/><feBlend in="SourceGraphic" in2="blurOut3" mode="normal"/></filter></defs><g><rect fill="#FFFFFF" filter="url(#f1o1mcwb0nckgs)" height="22" style="stroke: #FFFFFF; stroke-width: 1.0;" width="10" x="128" y="69.4297"/><line style="stroke: #A80036; stroke-width: 1.0;" x1="128" x2="128" y1="69.4297" y2="91.4297"/><line style="stroke: #A80036; stroke-width: 1.0;" x1="138" x2="138" y1="69.4297" y2="91.4297"/><line style="stroke: #A80036; stroke-width: 1.0;" x1="128" x2="138" y1="69.4297" y2="69.4297"/><rect fill="#FFFFFF" filter="url(#f1o1mcwb0nckgs)" height="35.1328" style="stroke: #FFFFFF; stroke-width: 1.0;" width="10" x="128" y="132.2344"/><line style="stroke: #A80036; stroke-width: 1.0;" x1="128" x2="128" y1="132.2344" y2="167.3672"/><line style="stroke: #A80036; stroke-width: 1.0;" x1="138" x2="138" y1="132.2344" y2="167.3672"/><line style="stroke: #A80036; stroke-width: 1.0;" x1="128" x2="138" y1="167.3672" y2="167.3672"/><rect fill="#FFFFFF" filter="url(#f1o1mcwb0nckgs)" height="22" style="stroke: #FFFFFF; stroke-width: 1.0;" width="10" x="218" y="196.5"/><line style="stroke: #A80036; stroke-width: 1.0;" x1="218" x2="218" y1="196.5" y2="218.5"/><line style="stroke: #A80036; stroke-width: 1.0;" x1="228" x2="228" y1="196.5" y2="218.5"/><line style="stroke: #A80036; stroke-width: 1.0;" x1="218" x2="228" y1="196.5" y2="196.5"/><rect fill="#FFFFFF" filter="url(#f1o1mcwb0nckgs)" height="35.1328" style="stroke: #FFFFFF; stroke-width: 1.0;" width="10" x="218" y="259.3047"/><line style="stroke: #A80036; stroke-width: 1.0;" x1="218" x2="218" y1="259.3047" y2="294.4375"/><line style="stroke: #A80036; stroke-width: 1.0;" x1="228" x2="228" y1="259.3047" y2="294.4375"/><line style="stroke: #A80036; stroke-width: 1.0;" x1="218" x2="228" y1="294.4375" y2="294.4375"/><rect fill="#FFFFFF" filter="url(#f1o1mcwb0nckgs)" height="8" style="stroke: #FFFFFF; stroke-width: 1.0;" width="10" x="376.5" y="83.4297"/><line style="stroke: #A80036; stroke-width: 1.0;" x1="376.5" x2="376.5" y1="83.4297" y2="91.4297"/><line style="stroke: #A80036; stroke-width: 1.0;" x1="386.5" x2="386.5" y1="83.4297" y2="91.4297"/><line style="stroke: #A80036; stroke-width: 1.0;" x1="376.5" x2="386.5" y1="83.4297" y2="83.4297"/><rect fill="#FFFFFF" filter="url(#f1o1mcwb0nckgs)" height="6" style="stroke: #FFFFFF; stroke-width: 1.0;" width="10" x="376.5" y="132.2344"/><line style="stroke: #A80036; stroke-width: 1.0;" x1="376.5" x2="376.5" y1="132.2344" y2="138.2344"/><line style="stroke: #A80036; stroke-width: 1.0;" x1="386.5" x2="386.5" y1="132.2344" y2="138.2344"/><line style="stroke: #A80036; stroke-width: 1.0;" x1="376.5" x2="386.5" y1="138.2344" y2="138.2344"/><rect fill="#FFFFFF" filter="url(#f1o1mcwb0nckgs)" height="8" style="stroke: #FFFFFF; stroke-width: 1.0;" width="10" x="376.5" y="210.5"/><line style="stroke: #A80036; stroke-width: 1.0;" x1="376.5" x2="376.5" y1="210.5" y2="218.5"/><line style="stroke: #A80036; stroke-width: 1.0;" x1="386.5" x2="386.5" y1="210.5" y2="218.5"/><line style="stroke: #A80036; stroke-width: 1.0;" x1="376.5" x2="386.5" y1="210.5" y2="210.5"/><rect fill="#FFFFFF" filter="url(#f1o1mcwb0nckgs)" height="6" style="stroke: #FFFFFF; stroke-width: 1.0;" width="10" x="376.5" y="259.3047"/><line style="stroke: #A80036; stroke-width: 1.0;" x1="376.5" x2="376.5" y1="259.3047" y2="265.3047"/><line style="stroke: #A80036; stroke-width: 1.0;" x1="386.5" x2="386.5" y1="259.3047" y2="265.3047"/><line style="stroke: #A80036; stroke-width: 1.0;" x1="376.5" x2="386.5" y1="265.3047" y2="265.3047"/><line style="stroke: #A80036; stroke-width: 1.0;" x1="33" x2="33" y1="38.2969" y2="91.4297"/><line style="stroke: #A80036; stroke-width: 1.0; stroke-dasharray: 1.0,4.0;" x1="33" x2="33" y1="91.4297" y2="132.2344"/><line style="stroke: #A80036; stroke-width: 1.0;" x1="33" x2="33" y1="132.2344" y2="218.5"/><line style="stroke: #A80036; stroke-width: 1.0; stroke-dasharray: 1.0,4.0;" x1="33" x2="33" y1="218.5" y2="259.3047"/><line style="stroke: #A80036; stroke-width: 1.0;" x1="33" x2="33" y1="259.3047" y2="312.4375"/><line style="stroke: #A80036; stroke-width: 1.0;" x1="133" x2="133" y1="38.2969" y2="91.4297"/><line style="stroke: #A80036; stroke-width: 1.0; stroke-dasharray: 1.0,4.0;" x1="133" x2="133" y1="91.4297" y2="132.2344"/><line style="stroke: #A80036; stroke-width: 1.0;" x1="133" x2="133" y1="132.2344" y2="218.5"/><line style="stroke: #A80036; stroke-width: 1.0; stroke-dasharray: 1.0,4.0;" x1="133" x2="133" y1="218.5" y2="259.3047"/><line style="stroke: #A80036; stroke-width: 1.0;" x1="133" x2="133" y1="259.3047" y2="312.4375"/><line style="stroke: #A80036; stroke-width: 1.0;" x1="223" x2="223" y1="38.2969" y2="91.4297"/><line style="stroke: #A80036; stroke-width: 1.0; stroke-dasharray: 1.0,4.0;" x1="223" x2="223" y1="91.4297" y2="132.2344"/><line style="stroke: #A80036; stroke-width: 1.0;" x1="223" x2="223" y1="132.2344" y2="218.5"/><line style="stroke: #A80036; stroke-width: 1.0; stroke-dasharray: 1.0,4.0;" x1="223" x2="223" y1="218.5" y2="259.3047"/><line style="stroke: #A80036; stroke-width: 1.0;" x1="223" x2="223" y1="259.3047" y2="312.4375"/><line style="stroke: #A80036; stroke-width: 1.0;" x1="313" x2="313" y1="38.2969" y2="91.4297"/><line style="stroke: #A80036; stroke-width: 1.0; stroke-dasharray: 1.0,4.0;" x1="313" x2="313" y1="91.4297" y2="132.2344"/><line style="stroke: #A80036; stroke-width: 1.0;" x1="313" x2="313" y1="132.2344" y2="218.5"/><line style="stroke: #A80036; stroke-width: 1.0; stroke-dasharray: 1.0,4.0;" x1="313" x2="313" y1="218.5" y2="259.3047"/><line style="stroke: #A80036; stroke-width: 1.0;" x1="313" x2="313" y1="259.3047" y2="312.4375"/><line style="stroke: #A80036; stroke-width: 1.0;" x1="381" x2="381" y1="38.2969" y2="91.4297"/><line style="stroke: #A80036; stroke-width: 1.0; stroke-dasharray: 1.0,4.0;" x1="381" x2="381" y1="91.4297" y2="132.2344"/><line style="stroke: #A80036; stroke-width: 1.0;" x1="381" x2="381" y1="132.2344" y2="218.5"/><line style="stroke: #A80036; stroke-width: 1.0; stroke-dasharray: 1.0,4.0;" x1="381" x2="381" y1="218.5" y2="259.3047"/><line style="stroke: #A80036; stroke-width: 1.0;" x1="381" x2="381" y1="259.3047" y2="312.4375"/><rect fill="#FEFECE" filter="url(#f1o1mcwb0nckgs)" height="30.2969" style="stroke: #A80036; stroke-width: 1.5;" width="46" x="8" y="3"/><text fill="#000000" font-family="sans-serif" font-size="14" lengthAdjust="spacingAndGlyphs" textLength="32" x="15" y="22.9951">User</text><rect fill="#FEFECE" filter="url(#f1o1mcwb0nckgs)" height="30.2969" style="stroke: #A80036; stroke-width: 1.5;" width="46" x="8" y="311.4375"/><text fill="#000000" font-family="sans-serif" font-size="14" lengthAdjust="spacingAndGlyphs" textLength="32" x="15" y="331.4326">User</text><rect fill="#FEFECE" filter="url(#f1o1mcwb0nckgs)" height="30.2969" style="stroke: #A80036; stroke-width: 1.5;" width="76" x="93" y="3"/><text fill="#000000" font-family="sans-serif" font-size="14" lengthAdjust="spacingAndGlyphs" textLength="62" x="100" y="22.9951">Thread 1</text><rect fill="#FEFECE" filter="url(#f1o1mcwb0nckgs)" height="30.2969" style="stroke: #A80036; stroke-width: 1.5;" width="76" x="93" y="311.4375"/><text fill="#000000" font-family="sans-serif" font-size="14" lengthAdjust="spacingAndGlyphs" textLength="62" x="100" y="331.4326">Thread 1</text><rect fill="#FEFECE" filter="url(#f1o1mcwb0nckgs)" height="30.2969" style="stroke: #A80036; stroke-width: 1.5;" width="76" x="183" y="3"/><text fill="#000000" font-family="sans-serif" font-size="14" lengthAdjust="spacingAndGlyphs" textLength="62" x="190" y="22.9951">Thread 2</text><rect fill="#FEFECE" filter="url(#f1o1mcwb0nckgs)" height="30.2969" style="stroke: #A80036; stroke-width: 1.5;" width="76" x="183" y="311.4375"/><text fill="#000000" font-family="sans-serif" font-size="14" lengthAdjust="spacingAndGlyphs" textLength="62" x="190" y="331.4326">Thread 2</text><rect fill="#FEFECE" filter="url(#f1o1mcwb0nckgs)" height="30.2969" style="stroke: #A80036; stroke-width: 1.5;" width="76" x="273" y="3"/><text fill="#000000" font-family="sans-serif" font-size="14" lengthAdjust="spacingAndGlyphs" textLength="62" x="280" y="22.9951">Thread 3</text><rect fill="#FEFECE" filter="url(#f1o1mcwb0nckgs)" height="30.2969" style="stroke: #A80036; stroke-width: 1.5;" width="76" x="273" y="311.4375"/><text fill="#000000" font-family="sans-serif" font-size="14" lengthAdjust="spacingAndGlyphs" textLength="62" x="280" y="331.4326">Thread 3</text><rect fill="#FEFECE" filter="url(#f1o1mcwb0nckgs)" height="30.2969" style="stroke: #A80036; stroke-width: 1.5;" width="33" x="363" y="3"/><text fill="#000000" font-family="sans-serif" font-size="14" lengthAdjust="spacingAndGlyphs" textLength="19" x="370" y="22.9951">I/O</text><rect fill="#FEFECE" filter="url(#f1o1mcwb0nckgs)" height="30.2969" style="stroke: #A80036; stroke-width: 1.5;" width="33" x="363" y="311.4375"/><text fill="#000000" font-family="sans-serif" font-size="14" lengthAdjust="spacingAndGlyphs" textLength="19" x="370" y="331.4326">I/O</text><rect fill="#FFFFFF" filter="url(#f1o1mcwb0nckgs)" height="22" style="stroke: #FFFFFF; stroke-width: 1.0;" width="10" x="128" y="69.4297"/><line style="stroke: #A80036; stroke-width: 1.0;" x1="128" x2="128" y1="69.4297" y2="91.4297"/><line style="stroke: #A80036; stroke-width: 1.0;" x1="138" x2="138" y1="69.4297" y2="91.4297"/><line style="stroke: #A80036; stroke-width: 1.0;" x1="128" x2="138" y1="69.4297" y2="69.4297"/><rect fill="#FFFFFF" filter="url(#f1o1mcwb0nckgs)" height="35.1328" style="stroke: #FFFFFF; stroke-width: 1.0;" width="10" x="128" y="132.2344"/><line style="stroke: #A80036; stroke-width: 1.0;" x1="128" x2="128" y1="132.2344" y2="167.3672"/><line style="stroke: #A80036; stroke-width: 1.0;" x1="138" x2="138" y1="132.2344" y2="167.3672"/><line style="stroke: #A80036; stroke-width: 1.0;" x1="128" x2="138" y1="167.3672" y2="167.3672"/><rect fill="#FFFFFF" filter="url(#f1o1mcwb0nckgs)" height="22" style="stroke: #FFFFFF; stroke-width: 1.0;" width="10" x="218" y="196.5"/><line style="stroke: #A80036; stroke-width: 1.0;" x1="218" x2="218" y1="196.5" y2="218.5"/><line style="stroke: #A80036; stroke-width: 1.0;" x1="228" x2="228" y1="196.5" y2="218.5"/><line style="stroke: #A80036; stroke-width: 1.0;" x1="218" x2="228" y1="196.5" y2="196.5"/><rect fill="#FFFFFF" filter="url(#f1o1mcwb0nckgs)" height="35.1328" style="stroke: #FFFFFF; stroke-width: 1.0;" width="10" x="218" y="259.3047"/><line style="stroke: #A80036; stroke-width: 1.0;" x1="218" x2="218" y1="259.3047" y2="294.4375"/><line style="stroke: #A80036; stroke-width: 1.0;" x1="228" x2="228" y1="259.3047" y2="294.4375"/><line style="stroke: #A80036; stroke-width: 1.0;" x1="218" x2="228" y1="294.4375" y2="294.4375"/><rect fill="#FFFFFF" filter="url(#f1o1mcwb0nckgs)" height="8" style="stroke: #FFFFFF; stroke-width: 1.0;" width="10" x="376.5" y="83.4297"/><line style="stroke: #A80036; stroke-width: 1.0;" x1="376.5" x2="376.5" y1="83.4297" y2="91.4297"/><line style="stroke: #A80036; stroke-width: 1.0;" x1="386.5" x2="386.5" y1="83.4297" y2="91.4297"/><line style="stroke: #A80036; stroke-width: 1.0;" x1="376.5" x2="386.5" y1="83.4297" y2="83.4297"/><rect fill="#FFFFFF" filter="url(#f1o1mcwb0nckgs)" height="6" style="stroke: #FFFFFF; stroke-width: 1.0;" width="10" x="376.5" y="132.2344"/><line style="stroke: #A80036; stroke-width: 1.0;" x1="376.5" x2="376.5" y1="132.2344" y2="138.2344"/><line style="stroke: #A80036; stroke-width: 1.0;" x1="386.5" x2="386.5" y1="132.2344" y2="138.2344"/><line style="stroke: #A80036; stroke-width: 1.0;" x1="376.5" x2="386.5" y1="138.2344" y2="138.2344"/><rect fill="#FFFFFF" filter="url(#f1o1mcwb0nckgs)" height="8" style="stroke: #FFFFFF; stroke-width: 1.0;" width="10" x="376.5" y="210.5"/><line style="stroke: #A80036; stroke-width: 1.0;" x1="376.5" x2="376.5" y1="210.5" y2="218.5"/><line style="stroke: #A80036; stroke-width: 1.0;" x1="386.5" x2="386.5" y1="210.5" y2="218.5"/><line style="stroke: #A80036; stroke-width: 1.0;" x1="376.5" x2="386.5" y1="210.5" y2="210.5"/><rect fill="#FFFFFF" filter="url(#f1o1mcwb0nckgs)" height="6" style="stroke: #FFFFFF; stroke-width: 1.0;" width="10" x="376.5" y="259.3047"/><line style="stroke: #A80036; stroke-width: 1.0;" x1="376.5" x2="376.5" y1="259.3047" y2="265.3047"/><line style="stroke: #A80036; stroke-width: 1.0;" x1="386.5" x2="386.5" y1="259.3047" y2="265.3047"/><line style="stroke: #A80036; stroke-width: 1.0;" x1="376.5" x2="386.5" y1="265.3047" y2="265.3047"/><polygon fill="#A80036" points="116,65.4297,126,69.4297,116,73.4297,120,69.4297" style="stroke: #A80036; stroke-width: 1.0;"/><line style="stroke: #A80036; stroke-width: 1.0;" x1="33" x2="122" y1="69.4297" y2="69.4297"/><text fill="#000000" font-family="sans-serif" font-size="13" lengthAdjust="spacingAndGlyphs" textLength="61" x="40" y="64.3638">request 1</text><polygon fill="#A80036" points="364.5,79.4297,374.5,83.4297,364.5,87.4297,368.5,83.4297" style="stroke: #A80036; stroke-width: 1.0;"/><line style="stroke: #A80036; stroke-width: 1.0;" x1="138" x2="370.5" y1="83.4297" y2="83.4297"/><text fill="#000000" font-family="sans-serif" font-size="11" lengthAdjust="spacingAndGlyphs" textLength="138" x="138.25" y="115.6401">blocking operation delay</text><polygon fill="#A80036" points="149,134.2344,139,138.2344,149,142.2344,145,138.2344" style="stroke: #A80036; stroke-width: 1.0;"/><line style="stroke: #A80036; stroke-width: 1.0;" x1="143" x2="380.5" y1="138.2344" y2="138.2344"/><polygon fill="#A80036" points="44,163.3672,34,167.3672,44,171.3672,40,167.3672" style="stroke: #A80036; stroke-width: 1.0;"/><line style="stroke: #A80036; stroke-width: 1.0;" x1="38" x2="132" y1="167.3672" y2="167.3672"/><text fill="#000000" font-family="sans-serif" font-size="13" lengthAdjust="spacingAndGlyphs" textLength="71" x="50" y="162.3013">response 1</text><polygon fill="#A80036" points="206,192.5,216,196.5,206,200.5,210,196.5" style="stroke: #A80036; stroke-width: 1.0;"/><line style="stroke: #A80036; stroke-width: 1.0;" x1="33" x2="212" y1="196.5" y2="196.5"/><text fill="#000000" font-family="sans-serif" font-size="13" lengthAdjust="spacingAndGlyphs" textLength="61" x="40" y="191.4341">request 2</text><polygon fill="#A80036" points="364.5,206.5,374.5,210.5,364.5,214.5,368.5,210.5" style="stroke: #A80036; stroke-width: 1.0;"/><line style="stroke: #A80036; stroke-width: 1.0;" x1="228" x2="370.5" y1="210.5" y2="210.5"/><text fill="#000000" font-family="sans-serif" font-size="11" lengthAdjust="spacingAndGlyphs" textLength="138" x="138.25" y="242.7104">blocking operation delay</text><polygon fill="#A80036" points="239,261.3047,229,265.3047,239,269.3047,235,265.3047" style="stroke: #A80036; stroke-width: 1.0;"/><line style="stroke: #A80036; stroke-width: 1.0;" x1="233" x2="380.5" y1="265.3047" y2="265.3047"/><polygon fill="#A80036" points="44,290.4375,34,294.4375,44,298.4375,40,294.4375" style="stroke: #A80036; stroke-width: 1.0;"/><line style="stroke: #A80036; stroke-width: 1.0;" x1="38" x2="222" y1="294.4375" y2="294.4375"/><text fill="#000000" font-family="sans-serif" font-size="13" lengthAdjust="spacingAndGlyphs" textLength="71" x="50" y="289.3716">response 2</text><!--MD5=[4034b963b09f8afe392a10f076170138]
@startuml
participant "User"
participant "Thread 1"
participant "Thread 2"
participant "Thread 3"
participant "I/O"

"User" -> "Thread 1": request 1
activate "Thread 1"

"Thread 1" -> "I/O":
activate "I/O"
...blocking operation delay...
"I/O" -> "Thread 1"
deactivate "I/O"

"Thread 1" -> "User": response 1
deactivate "Thread 1"

"User" -> "Thread 2": request 2
activate "Thread 2"

"Thread 2" -> "I/O":
activate "I/O"
...blocking operation delay...
"I/O" -> "Thread 2"
deactivate "I/O"

"Thread 2" -> "User": response 2
deactivate "Thread 2"
@enduml

PlantUML version 1.2019.12beta6(Unknown compile time)
(GPL source distribution)
Java Runtime: Java(TM) SE Runtime Environment
JVM: Java HotSpot(TM) 64-Bit Server VM
Java Version: 1.7.0_25-b15
Operating System: Linux
Default Encoding: UTF-8
Language: en
Country: US
--></g></svg>