<?xml version="1.0" encoding="UTF-8" standalone="no"?><svg xmlns="http://www.w3.org/2000/svg" xmlns:xlink="http://www.w3.org/1999/xlink" contentScriptType="application/ecmascript" contentStyleType="text/css" height="311px" preserveAspectRatio="none" style="width:392px;height:311px;" version="1.1" viewBox="0 0 392 311" width="392px" zoomAndPan="magnify"><defs><filter height="300%" id="f9atasvsyyrl3" width="300%" x="-1" y="-1"><feGaussianBlur result="blurOut" stdDeviation="2.0"/><feColorMatrix in="blurOut" result="blurOut2" type="matrix" values="0 0 0 0 0 0 0 0 0 0 0 0 0 0 0 0 0 0 .4 0"/><feOffset dx="4.0" dy="4.0" in="blurOut2" result="blurOut3"/><feBlend in="SourceGraphic" in2="blurOut3" mode="normal"/></filter></defs><g><rect fill="#FFFFFF" filter="url(#f9atasvsyyrl3)" height="14" style="stroke: #A80036; stroke-width: 1.0;" width="10" x="113" y="69.4297"/><rect fill="#FFFFFF" filter="url(#f9atasvsyyrl3)" height="14" style="stroke: #A80036; stroke-width: 1.0;" width="10" x="203" y="112.5625"/><rect fill="#FFFFFF" filter="url(#f9atasvsyyrl3)" height="29.1328" style="stroke: #A80036; stroke-width: 1.0;" width="10" x="203" y="224.5"/><rect fill="#FFFFFF" filter="url(#f9atasvsyyrl3)" height="29.1328" style="stroke: #A80036; stroke-width: 1.0;" width="10" x="293" y="181.3672"/><rect fill="#FFFFFF" filter="url(#f9atasvsyyrl3)" height="51.1328" style="stroke: #FFFFFF; stroke-width: 1.0;" width="10" x="361.5" y="83.4297"/><line style="stroke: #A80036; stroke-width: 1.0;" x1="361.5" x2="361.5" y1="83.4297" y2="134.5625"/><line style="stroke: #A80036; stroke-width: 1.0;" x1="371.5" x2="371.5" y1="83.4297" y2="134.5625"/><line style="stroke: #A80036; stroke-width: 1.0;" x1="361.5" x2="371.5" y1="83.4297" y2="83.4297"/><rect fill="#FFFFFF" filter="url(#f9atasvsyyrl3)" height="49.1328" style="stroke: #FFFFFF; stroke-width: 1.0;" width="10" x="361.5" y="175.3672"/><line style="stroke: #A80036; stroke-width: 1.0;" x1="361.5" x2="361.5" y1="175.3672" y2="224.5"/><line style="stroke: #A80036; stroke-width: 1.0;" x1="371.5" x2="371.5" y1="175.3672" y2="224.5"/><line style="stroke: #A80036; stroke-width: 1.0;" x1="361.5" x2="371.5" y1="224.5" y2="224.5"/><rect fill="#FFFFFF" filter="url(#f9atasvsyyrl3)" height="8" style="stroke: #FFFFFF; stroke-width: 1.0;" width="10" x="366.5" y="126.5625"/><line style="stroke: #A80036; stroke-width: 1.0;" x1="366.5" x2="366.5" y1="126.5625" y2="134.5625"/><line style="stroke: #A80036; stroke-width: 1.0;" x1="376.5" x2="376.5" y1="126.5625" y2="134.5625"/><line style="stroke: #A80036; stroke-width: 1.0;" x1="366.5" x2="376.5" y1="126.5625" y2="126.5625"/><rect fill="#FFFFFF" filter="url(#f9atasvsyyrl3)" height="6" style="stroke: #FFFFFF; stroke-width: 1.0;" width="10" x="366.5" y="175.3672"/><line style="stroke: #A80036; stroke-width: 1.0;" x1="366.5" x2="366.5" y1="175.3672" y2="181.3672"/><line style="stroke: #A80036; stroke-width: 1.0;" x1="376.5" x2="376.5" y1="175.3672" y2="181.3672"/><line style="stroke: #A80036; stroke-width: 1.0;" x1="366.5" x2="376.5" y1="181.3672" y2="181.3672"/><line style="stroke: #A80036; stroke-width: 1.0;" x1="33" x2="33" y1="38.2969" y2="134.5625"/><line style="stroke: #A80036; stroke-width: 1.0; stroke-dasharray: 1.0,4.0;" x1="33" x2="33" y1="134.5625" y2="175.3672"/><line style="stroke: #A80036; stroke-width: 1.0;" x1="33" x2="33" y1="175.3672" y2="271.6328"/><line style="stroke: #A80036; stroke-width: 1.0;" x1="118" x2="118" y1="38.2969" y2="134.5625"/><line style="stroke: #A80036; stroke-width: 1.0; stroke-dasharray: 1.0,4.0;" x1="118" x2="118" y1="134.5625" y2="175.3672"/><line style="stroke: #A80036; stroke-width: 1.0;" x1="118" x2="118" y1="175.3672" y2="271.6328"/><line style="stroke: #A80036; stroke-width: 1.0;" x1="208" x2="208" y1="38.2969" y2="134.5625"/><line style="stroke: #A80036; stroke-width: 1.0; stroke-dasharray: 1.0,4.0;" x1="208" x2="208" y1="134.5625" y2="175.3672"/><line style="stroke: #A80036; stroke-width: 1.0;" x1="208" x2="208" y1="175.3672" y2="271.6328"/><line style="stroke: #A80036; stroke-width: 1.0;" x1="298" x2="298" y1="38.2969" y2="134.5625"/><line style="stroke: #A80036; stroke-width: 1.0; stroke-dasharray: 1.0,4.0;" x1="298" x2="298" y1="134.5625" y2="175.3672"/><line style="stroke: #A80036; stroke-width: 1.0;" x1="298" x2="298" y1="175.3672" y2="271.6328"/><line style="stroke: #A80036; stroke-width: 1.0;" x1="366" x2="366" y1="38.2969" y2="134.5625"/><line style="stroke: #A80036; stroke-width: 1.0; stroke-dasharray: 1.0,4.0;" x1="366" x2="366" y1="134.5625" y2="175.3672"/><line style="stroke: #A80036; stroke-width: 1.0;" x1="366" x2="366" y1="175.3672" y2="271.6328"/><rect fill="#FEFECE" filter="url(#f9atasvsyyrl3)" height="30.2969" style="stroke: #A80036; stroke-width: 1.5;" width="46" x="8" y="3"/><text fill="#000000" font-family="sans-serif" font-size="14" lengthAdjust="spacingAndGlyphs" textLength="32" x="15" y="22.9951">User</text><rect fill="#FEFECE" filter="url(#f9atasvsyyrl3)" height="30.2969" style="stroke: #A80036; stroke-width: 1.5;" width="46" x="8" y="270.6328"/><text fill="#000000" font-family="sans-serif" font-size="14" lengthAdjust="spacingAndGlyphs" textLength="32" x="15" y="290.6279">User</text><rect fill="#FEFECE" filter="url(#f9atasvsyyrl3)" height="30.2969" style="stroke: #A80036; stroke-width: 1.5;" width="76" x="78" y="3"/><text fill="#000000" font-family="sans-serif" font-size="14" lengthAdjust="spacingAndGlyphs" textLength="62" x="85" y="22.9951">Thread 1</text><rect fill="#FEFECE" filter="url(#f9atasvsyyrl3)" height="30.2969" style="stroke: #A80036; stroke-width: 1.5;" width="76" x="78" y="270.6328"/><text fill="#000000" font-family="sans-serif" font-size="14" lengthAdjust="spacingAndGlyphs" textLength="62" x="85" y="290.6279">Thread 1</text><rect fill="#FEFECE" filter="url(#f9atasvsyyrl3)" height="30.2969" style="stroke: #A80036; stroke-width: 1.5;" width="76" x="168" y="3"/><text fill="#000000" font-family="sans-serif" font-size="14" lengthAdjust="spacingAndGlyphs" textLength="62" x="175" y="22.9951">Thread 2</text><rect fill="#FEFECE" filter="url(#f9atasvsyyrl3)" height="30.2969" style="stroke: #A80036; stroke-width: 1.5;" width="76" x="168" y="270.6328"/><text fill="#000000" font-family="sans-serif" font-size="14" lengthAdjust="spacingAndGlyphs" textLength="62" x="175" y="290.6279">Thread 2</text><rect fill="#FEFECE" filter="url(#f9atasvsyyrl3)" height="30.2969" style="stroke: #A80036; stroke-width: 1.5;" width="76" x="258" y="3"/><text fill="#000000" font-family="sans-serif" font-size="14" lengthAdjust="spacingAndGlyphs" textLength="62" x="265" y="22.9951">Thread 3</text><rect fill="#FEFECE" filter="url(#f9atasvsyyrl3)" height="30.2969" style="stroke: #A80036; stroke-width: 1.5;" width="76" x="258" y="270.6328"/><text fill="#000000" font-family="sans-serif" font-size="14" lengthAdjust="spacingAndGlyphs" textLength="62" x="265" y="290.6279">Thread 3</text><rect fill="#FEFECE" filter="url(#f9atasvsyyrl3)" height="30.2969" style="stroke: #A80036; stroke-width: 1.5;" width="33" x="348" y="3"/><text fill="#000000" font-family="sans-serif" font-size="14" lengthAdjust="spacingAndGlyphs" textLength="19" x="355" y="22.9951">I/O</text><rect fill="#FEFECE" filter="url(#f9atasvsyyrl3)" height="30.2969" style="stroke: #A80036; stroke-width: 1.5;" width="33" x="348" y="270.6328"/><text fill="#000000" font-family="sans-serif" font-size="14" lengthAdjust="spacingAndGlyphs" textLength="19" x="355" y="290.6279">I/O</text><rect fill="#FFFFFF" filter="url(#f9atasvsyyrl3)" height="14" style="stroke: #A80036; stroke-width: 1.0;" width="10" x="113" y="69.4297"/><rect fill="#FFFFFF" filter="url(#f9atasvsyyrl3)" height="14" style="stroke: #A80036; stroke-width: 1.0;" width="10" x="203" y="112.5625"/><rect fill="#FFFFFF" filter="url(#f9atasvsyyrl3)" height="29.1328" style="stroke: #A80036; stroke-width: 1.0;" width="10" x="203" y="224.5"/><rect fill="#FFFFFF" filter="url(#f9atasvsyyrl3)" height="29.1328" style="stroke: #A80036; stroke-width: 1.0;" width="10" x="293" y="181.3672"/><rect fill="#FFFFFF" filter="url(#f9atasvsyyrl3)" height="51.1328" style="stroke: #FFFFFF; stroke-width: 1.0;" width="10" x="361.5" y="83.4297"/><line style="stroke: #A80036; stroke-width: 1.0;" x1="361.5" x2="361.5" y1="83.4297" y2="134.5625"/><line style="stroke: #A80036; stroke-width: 1.0;" x1="371.5" x2="371.5" y1="83.4297" y2="134.5625"/><line style="stroke: #A80036; stroke-width: 1.0;" x1="361.5" x2="371.5" y1="83.4297" y2="83.4297"/><rect fill="#FFFFFF" filter="url(#f9atasvsyyrl3)" height="49.1328" style="stroke: #FFFFFF; stroke-width: 1.0;" width="10" x="361.5" y="175.3672"/><line style="stroke: #A80036; stroke-width: 1.0;" x1="361.5" x2="361.5" y1="175.3672" y2="224.5"/><line style="stroke: #A80036; stroke-width: 1.0;" x1="371.5" x2="371.5" y1="175.3672" y2="224.5"/><line style="stroke: #A80036; stroke-width: 1.0;" x1="361.5" x2="371.5" y1="224.5" y2="224.5"/><rect fill="#FFFFFF" filter="url(#f9atasvsyyrl3)" height="8" style="stroke: #FFFFFF; stroke-width: 1.0;" width="10" x="366.5" y="126.5625"/><line style="stroke: #A80036; stroke-width: 1.0;" x1="366.5" x2="366.5" y1="126.5625" y2="134.5625"/><line style="stroke: #A80036; stroke-width: 1.0;" x1="376.5" x2="376.5" y1="126.5625" y2="134.5625"/><line style="stroke: #A80036; stroke-width: 1.0;" x1="366.5" x2="376.5" y1="126.5625" y2="126.5625"/><rect fill="#FFFFFF" filter="url(#f9atasvsyyrl3)" height="6" style="stroke: #FFFFFF; stroke-width: 1.0;" width="10" x="366.5" y="175.3672"/><line style="stroke: #A80036; stroke-width: 1.0;" x1="366.5" x2="366.5" y1="175.3672" y2="181.3672"/><line style="stroke: #A80036; stroke-width: 1.0;" x1="376.5" x2="376.5" y1="175.3672" y2="181.3672"/><line style="stroke: #A80036; stroke-width: 1.0;" x1="366.5" x2="376.5" y1="181.3672" y2="181.3672"/><polygon fill="#A80036" points="101,65.4297,111,69.4297,101,73.4297,105,69.4297" style="stroke: #A80036; stroke-width: 1.0;"/><line style="stroke: #A80036; stroke-width: 1.0;" x1="33" x2="107" y1="69.4297" y2="69.4297"/><text fill="#000000" font-family="sans-serif" font-size="13" lengthAdjust="spacingAndGlyphs" textLength="61" x="40" y="64.3638">request 1</text><polygon fill="#A80036" points="349.5,79.4297,359.5,83.4297,349.5,87.4297,353.5,83.4297" style="stroke: #A80036; stroke-width: 1.0;"/><line style="stroke: #A80036; stroke-width: 1.0;" x1="118" x2="355.5" y1="83.4297" y2="83.4297"/><polygon fill="#A80036" points="191,108.5625,201,112.5625,191,116.5625,195,112.5625" style="stroke: #A80036; stroke-width: 1.0;"/><line style="stroke: #A80036; stroke-width: 1.0;" x1="33" x2="197" y1="112.5625" y2="112.5625"/><text fill="#000000" font-family="sans-serif" font-size="13" lengthAdjust="spacingAndGlyphs" textLength="61" x="40" y="107.4966">request 2</text><polygon fill="#A80036" points="354.5,122.5625,364.5,126.5625,354.5,130.5625,358.5,126.5625" style="stroke: #A80036; stroke-width: 1.0;"/><line style="stroke: #A80036; stroke-width: 1.0;" x1="208" x2="360.5" y1="126.5625" y2="126.5625"/><text fill="#000000" font-family="sans-serif" font-size="11" lengthAdjust="spacingAndGlyphs" textLength="138" x="130.75" y="158.7729">blocking operation delay</text><polygon fill="#A80036" points="314,177.3672,304,181.3672,314,185.3672,310,181.3672" style="stroke: #A80036; stroke-width: 1.0;"/><line style="stroke: #A80036; stroke-width: 1.0;" x1="308" x2="360.5" y1="181.3672" y2="181.3672"/><polygon fill="#A80036" points="44,206.5,34,210.5,44,214.5,40,210.5" style="stroke: #A80036; stroke-width: 1.0;"/><line style="stroke: #A80036; stroke-width: 1.0;" x1="38" x2="297" y1="210.5" y2="210.5"/><text fill="#000000" font-family="sans-serif" font-size="13" lengthAdjust="spacingAndGlyphs" textLength="71" x="50" y="205.4341">response 1</text><polygon fill="#A80036" points="224,220.5,214,224.5,224,228.5,220,224.5" style="stroke: #A80036; stroke-width: 1.0;"/><line style="stroke: #A80036; stroke-width: 1.0;" x1="218" x2="365.5" y1="224.5" y2="224.5"/><polygon fill="#A80036" points="44,249.6328,34,253.6328,44,257.6328,40,253.6328" style="stroke: #A80036; stroke-width: 1.0;"/><line style="stroke: #A80036; stroke-width: 1.0;" x1="38" x2="207" y1="253.6328" y2="253.6328"/><text fill="#000000" font-family="sans-serif" font-size="13" lengthAdjust="spacingAndGlyphs" textLength="71" x="50" y="248.5669">response 2</text><!--MD5=[c574c2297381fad2e09b4d1bf99ac738]
@startuml
participant "User"
participant "Thread 1"
participant "Thread 2"
participant "Thread 3"
participant "I/O"

"User" -> "Thread 1": request 1
activate "Thread 1"

"Thread 1" -> "I/O":
deactivate "Thread 1"
activate "I/O"

"User" -> "Thread 2": request 2
activate "Thread 2"

"Thread 2" -> "I/O":
deactivate "Thread 2"
activate "I/O"

...blocking operation delay...

"I/O" -> "Thread 3"
deactivate "I/O"
activate "Thread 3"

"Thread 3" -> "User": response 1
deactivate "Thread 1"
deactivate "Thread 3"

"I/O" -> "Thread 2"
deactivate "I/O"
activate "Thread 2"

"Thread 2" -> "User": response 2
deactivate "Thread 2"
deactivate "Thread 3"
@enduml

PlantUML version 1.2019.11(Sun Sep 22 10:02:15 UTC 2019)
(GPL source distribution)
Java Runtime: Java(TM) SE Runtime Environment
JVM: Java HotSpot(TM) 64-Bit Server VM
Java Version: 1.7.0_25-b15
Operating System: Linux
Default Encoding: UTF-8
Language: en
Country: US
--></g></svg>